<?xml version="1.0" encoding="UTF-8" standalone="no"?>
<!DOCTYPE svg PUBLIC "-//W3C//DTD SVG 1.1//EN" "http://www.w3.org/Graphics/SVG/1.1/DTD/svg11.dtd">
<svg width="100%" height="100%" viewBox="0 0 3665 955" version="1.1" xmlns="http://www.w3.org/2000/svg" xmlns:xlink="http://www.w3.org/1999/xlink" xml:space="preserve" xmlns:serif="http://www.serif.com/" style="fill-rule:evenodd;clip-rule:evenodd;stroke-linejoin:round;stroke-miterlimit:2;">
    <g transform="matrix(1,0,0,1,-526.843,-9738.59)">
        <g transform="matrix(4.16667,0,0,4.16667,0,0)">
            <g transform="matrix(1,0,0,1,253.393,2448.73)">
                <path d="M0,5.694C-6,7.333 -9.579,3.103 -9.579,3.103L10.004,-9.911C10.186,-4.085 5.974,4.062 0,5.694M-3.034,49.717C-4.828,51.515 -6.664,54.293 -7.937,57.265C-7.937,57.265 -10.575,54.576 -9.167,50.474C-7.749,46.37 -6.003,44.441 -4.162,44.441C-2.323,44.441 -1.146,47.837 -3.034,49.717M-25.286,64.756L-35.055,64.722C-45.858,64.722 -54.617,55.966 -54.617,45.157C-54.617,42.394 -54.036,39.761 -53,37.374L-58.13,8.27C-63.177,3.964 -66.384,-2.436 -66.384,-9.589L-66.384,-29.062C-66.384,-22.634 -71.593,-17.418 -78.026,-17.418L-111.369,-17.418C-111.369,-17.418 -72.242,-40.897 -72.242,-40.943C-77.16,-40.943 -86.913,-49.286 -86.913,-60.133C-86.913,-71.697 -71.773,-89.31 -70.824,-98.264L-70.748,-99.062C-70.541,-98.776 -69.308,-96.818 -69.308,-91.434C-69.308,-85.565 -71.491,-76.949 -72.181,-69.151C-72.843,-61.666 -67.738,-55.928 -55.658,-52.643C-43.787,-49.414 -25.286,-48.833 -25.286,-48.901L-25.286,64.756ZM75.492,-15.586L45.684,-33.471C45.684,-33.471 43.354,-40.126 38.909,-47.24C41.065,-50.963 42.477,-55.336 42.477,-60.119C42.477,-68.119 37.494,-76.934 32.677,-85.459C29.975,-90.236 27.639,-94.416 26.281,-98.488C25.269,-101.784 24.42,-105.48 24.42,-107.516C24.42,-109.613 24.708,-111.087 22.858,-111.444C20.506,-111.896 15.712,-106.807 13.76,-97.91L13.764,-97.909C13.357,-96.32 13.073,-94.269 13.073,-91.419C13.073,-87.652 13.794,-83.279 14.557,-78.648C14.813,-77.137 15.059,-75.606 15.292,-74.084C-3.947,-93.323 -25.167,-101.532 -25.167,-101.532L-25.167,-89.865C-42.125,-93.895 -56.485,-89.835 -56.485,-89.835L-48.461,-81.814C-54.777,-79.732 -61.736,-75.857 -65.759,-72.892C-65.763,-72.89 -65.77,-72.892 -65.772,-72.89C-65.503,-74.803 -65.188,-76.742 -64.87,-78.648C-64.112,-83.279 -63.388,-87.652 -63.388,-91.419C-63.388,-94.27 -63.671,-96.321 -64.079,-97.91L-64.078,-97.91C-64.079,-97.912 -64.08,-97.916 -64.081,-97.92C-64.083,-97.932 -64.086,-97.944 -64.089,-97.954C-66.048,-106.824 -70.83,-111.896 -73.176,-111.444C-75.026,-111.087 -74.74,-109.613 -74.74,-107.516C-74.74,-105.472 -75.19,-102.377 -76.394,-99.103C-76.397,-99.098 -76.414,-99.069 -76.414,-99.069C-77.734,-94.815 -80.162,-90.46 -82.988,-85.459C-87.807,-76.934 -92.79,-68.119 -92.79,-60.119C-92.79,-55.399 -91.412,-51.084 -89.306,-47.395C-93.508,-40.639 -96.047,-33.471 -96.047,-33.471L-125.855,-15.586C-127.791,-14.465 -126.996,-11.504 -124.758,-11.504L-102.714,-11.504C-102.714,-11.504 -107.223,9.496 -101.482,36.2C-99.298,31.31 -96.001,27.027 -91.906,23.683C-92.191,26.787 -92.112,31.392 -92.112,34.564C-92.112,53.527 -79.752,71.63 -79.752,83.152C-75.658,79.809 -72.362,75.522 -70.179,70.641C-59.684,90.412 -45.233,106.777 -25.18,117.59L-25.18,94.128C-20.062,98.308 -15.943,103.658 -13.214,109.766C1.416,99.44 11.495,86.324 19.819,70.641C22.004,75.522 25.3,79.809 29.396,83.152C29.396,71.63 41.753,53.527 41.753,34.564C41.753,31.392 41.833,26.787 41.55,23.683C48.733,29.923 50.904,35.589 51.105,36.144C56.73,12.101 52.351,-11.504 52.351,-11.504L74.396,-11.504C76.633,-11.504 77.428,-14.465 75.492,-15.586" style="fill:rgb(0,0,10);fill-rule:nonzero;"/>
            </g>
        </g>
        <g transform="matrix(4.16667,0,0,4.16667,0,0)">
            <g transform="matrix(-0.959401,0.282045,0.282045,0.959401,212.261,2505.26)">
                <path d="M1.519,-13.043C3.283,-13.561 5.374,-10.636 4.097,-8.301C2.877,-6.069 1.901,-2.886 1.519,0.324C1.519,0.324 -1.778,-1.509 -1.575,-5.845C-1.375,-10.181 -0.246,-12.524 1.519,-13.043" style="fill:rgb(0,0,10);fill-rule:nonzero;"/>
            </g>
        </g>
        <g transform="matrix(4.16667,0,0,4.16667,0,0)">
            <g transform="matrix(1,0,0,1,202.962,2440.46)">
                <path d="M0,13.966C6,15.605 9.58,11.375 9.58,11.375L-10.004,-1.639C-10.186,4.187 -5.974,12.334 0,13.966" style="fill:rgb(0,0,10);fill-rule:nonzero;"/>
            </g>
        </g>
        <g transform="matrix(4.16667,0,0,4.16667,0,0)">
            <g transform="matrix(1,0,0,1,992.653,2411.69)">
                <path d="M0,23.216C-6.405,23.216 -11.601,18.009 -11.601,11.61C-11.601,5.201 -6.405,-0 0,-0C6.405,-0 11.612,5.201 11.612,11.61C11.612,18.009 6.405,23.216 0,23.216M0,-1.688C-7.322,-1.688 -13.292,4.273 -13.292,11.61C-13.292,18.949 -7.322,24.904 0,24.904C7.34,24.904 13.298,18.949 13.298,11.61C13.298,4.273 7.34,-1.688 0,-1.688" style="fill:rgb(0,0,10);fill-rule:nonzero;"/>
            </g>
        </g>
        <g transform="matrix(4.16667,0,0,4.16667,0,0)">
            <g transform="matrix(1,0,0,1,993.124,2424.18)">
                <path d="M0,-1.989L-4.416,-1.989L-4.416,-7.083L0.499,-7.083C1.657,-7.083 2.482,-6.851 3.021,-6.381C3.55,-5.911 3.819,-5.308 3.819,-4.589C3.819,-4.095 3.688,-3.62 3.418,-3.201C3.137,-2.777 2.729,-2.459 2.208,-2.272C1.68,-2.075 0.946,-1.989 0,-1.989M2.81,0.483C2.528,0.228 2.116,-0.033 1.576,-0.289C3.063,-0.498 4.157,-0.985 4.874,-1.745C5.597,-2.505 5.958,-3.439 5.958,-4.543C5.958,-5.406 5.734,-6.197 5.31,-6.903C4.868,-7.611 4.301,-8.11 3.572,-8.396C2.855,-8.675 1.812,-8.812 0.418,-8.812L-6.469,-8.812L-6.469,6.823L-4.416,6.823L-4.416,-0.136L-2.03,-0.136C-1.503,-0.136 -1.118,-0.107 -0.889,-0.061C-0.568,0.019 -0.247,0.164 0.046,0.368C0.367,0.572 0.711,0.913 1.101,1.407C1.485,1.911 1.979,2.624 2.58,3.565L4.633,6.823L7.214,6.823L4.524,2.568C3.996,1.731 3.418,1.031 2.81,0.483" style="fill:rgb(0,0,10);fill-rule:nonzero;"/>
            </g>
        </g>
        <g transform="matrix(4.16667,0,0,4.16667,0,0)">
            <g transform="matrix(1,0,0,1,729.605,2492.25)">
                <path d="M0,-81.573L-25.466,-81.573L-54.65,-44.314L-54.65,-81.573L-79.03,-81.573L-79.03,0L-54.65,0L-54.65,-38.68L-27.788,0L1.078,0L-29.604,-43.698L0,-81.573Z" style="fill:rgb(0,0,10);fill-rule:nonzero;"/>
            </g>
        </g>
        <g transform="matrix(4.16667,0,0,4.16667,0,0)">
            <g transform="matrix(1,0,0,1,622.437,2428.18)">
                <path d="M0,47.444C-16.079,44.762 -20.303,31.491 -20.303,23.574L-20.311,23.574C-20.303,15.664 -16.079,2.391 0,-0.295C10.373,-2.027 20.661,4.137 21.463,4.45L21.463,-13.238C16.509,-15.588 8.283,-19.063 -5.637,-18.367C-18.926,-17.702 -44.688,-10.035 -44.688,23.615L-44.676,24.061C-43.403,57.705 -20.689,64.465 -5.637,65.515C8.355,66.507 16.509,62.731 21.475,60.381L21.475,42.684C20.672,43.016 10.373,49.189 0,47.444" style="fill:rgb(0,0,10);fill-rule:nonzero;"/>
            </g>
        </g>
        <g transform="matrix(4.16667,0,0,4.16667,0,0)">
            <g transform="matrix(1,0,0,1,798.285,2492.31)">
                <path d="M0,-81.528L-17.277,-54.548L-34.521,-81.528L-59.318,-81.528L-30.146,-34.673L-30.146,0L-4.393,0L-4.393,-34.696L24.784,-81.528L0,-81.528Z" style="fill:rgb(0,0,10);fill-rule:nonzero;"/>
            </g>
        </g>
        <g transform="matrix(4.16667,0,0,4.16667,0,0)">
            <g transform="matrix(1,0,0,1,976.284,2492.25)">
                <path d="M0,-81.573L-25.202,-81.573L-54.647,-44.314L-54.647,-81.573L-79.024,-81.573L-79.024,0L-54.647,0L-54.647,-38.68L-27.954,0L1.09,0L-29.617,-43.698L0,-81.573Z" style="fill:rgb(0,0,10);fill-rule:nonzero;"/>
            </g>
        </g>
        <g transform="matrix(4.16667,0,0,4.16667,0,0)">
            <g transform="matrix(1,0,0,1,394.566,2425.27)">
                <path d="M0,52.385L-14.23,52.385L-14.23,32.751L0,32.751C5.424,32.751 9.823,37.143 9.823,42.56C9.823,47.995 5.424,52.385 0,52.385M-14.23,0.013L-1.069,0.013C3.957,0.013 8.019,4.059 8.019,9.071C8.019,14.091 3.957,18.155 -1.069,18.155L-14.23,18.155L-14.23,0.013ZM18.126,22.409L17.404,22.125L18.097,21.77C25.541,18.057 29.147,12.554 29.147,4.945C29.147,0.371 27.456,-14.594 5.872,-14.594L-38.615,-14.594L-38.615,66.979L11.658,66.979C24.42,66.979 33.345,57.491 33.345,43.915C33.345,33.353 28.666,26.733 18.126,22.409" style="fill:rgb(0,0,10);fill-rule:nonzero;"/>
            </g>
        </g>
        <g transform="matrix(4.16667,0,0,4.16667,0,0)">
            <g transform="matrix(1,0,0,1,525.816,2492.25)">
                <path d="M0,-81.573L-32.19,0L-8.582,0L12.635,-56.305C12.716,-56.531 13.068,-56.924 13.347,-56.211L34.581,0L58.384,0L25.87,-81.573L0,-81.573Z" style="fill:rgb(0,0,10);fill-rule:nonzero;"/>
            </g>
        </g>
        <g transform="matrix(4.16667,0,0,4.16667,0,0)">
            <g transform="matrix(1,0,0,1,835.404,2492.25)">
                <path d="M0,-81.573L-32.188,0L-8.579,0L12.632,-56.305C12.718,-56.531 13.073,-56.924 13.343,-56.211L34.589,0L58.381,0L25.873,-81.573L0,-81.573Z" style="fill:rgb(0,0,10);fill-rule:nonzero;"/>
            </g>
        </g>
        <g transform="matrix(4.16667,0,0,4.16667,0,0)">
            <g transform="matrix(1,0,0,1,456.852,2492.25)">
                <path d="M0,-81.573L-24.376,-81.573L-24.376,0L33.741,0L33.741,-17.759L0,-17.759L0,-81.573Z" style="fill:rgb(0,0,10);fill-rule:nonzero;"/>
            </g>
        </g>
    </g>
</svg>
